<svg xmlns="http://www.w3.org/2000/svg" width="22" height="22" fill="none" viewBox="0 0 25 25"><path fill="#FD173E" d="M21.683 7.72a2.423 2.423 0 1 0 0-4.845 2.423 2.423 0 0 0 0 4.846M2.423 22.452a2.423 2.423 0 1 0 0-4.846 2.423 2.423 0 0 0 0 4.846"></path><path fill="#3771C8" d="M7.087 18.267a2.066 2.066 0 0 1-.98-3.682l9.453-7.267a2.066 2.066 0 0 1 2.523 3.27L8.63 17.857a2.06 2.06 0 0 1-1.543.411"></path><path fill="#0EAEC1" d="M5.065 11.38a2.066 2.066 0 0 1-.98-3.682L13.536.43a2.066 2.066 0 0 1 2.523 3.271L6.607 10.97a2.06 2.06 0 0 1-1.542.41"></path><path fill="#FE7904" d="M9.808 24.98a2.066 2.066 0 0 1-.98-3.682l9.453-7.267a2.066 2.066 0 0 1 2.523 3.271l-9.453 7.268a2.06 2.06 0 0 1-1.543.41"></path></svg>
